<?xml version="1.0" standalone="no"?>
<!DOCTYPE svg PUBLIC "-//W3C//DTD SVG 20010904//EN"
 "http://www.w3.org/TR/2001/REC-SVG-20010904/DTD/svg10.dtd">
<svg version="1.0" xmlns="http://www.w3.org/2000/svg"
 width="100.000000pt" height="100.000000pt" viewBox="0 0 100.000000 100.000000"
 preserveAspectRatio="xMidYMid meet">

<g transform="translate(0.000000,100.000000) scale(0.100000,-0.100000)"
fill="#000000" stroke="none">
<path d="M95 986 c-37 -16 -70 -52 -84 -89 -7 -18 -11 -155 -11 -379 0 -331 1
-354 20 -393 13 -26 34 -49 59 -63 36 -21 51 -22 245 -22 113 0 206 2 206 4 0
3 -9 21 -21 40 l-21 36 -184 0 c-171 0 -185 1 -204 20 -19 19 -20 33 -20 380
0 348 1 361 20 380 19 19 31 20 168 18 l147 -3 5 -102 c3 -56 9 -105 13 -110
5 -4 54 -10 110 -13 l102 -5 3 -87 c1 -49 6 -88 11 -88 4 0 22 5 40 11 l31 11
0 92 c0 87 -2 96 -29 132 -33 45 -194 203 -231 228 -20 13 -52 16 -185 16
-111 -1 -169 -5 -190 -14z"/>
<path d="M675 431 c-80 -37 -125 -111 -125 -203 1 -93 52 -169 140 -206 54
-22 148 -12 199 21 62 41 94 97 99 171 5 70 -9 112 -54 165 -57 68 -174 91
-259 52z m133 -123 c3 -36 5 -38 38 -38 33 0 34 -1 34 -40 0 -39 -1 -40 -35
-40 -33 0 -35 -2 -35 -35 0 -34 -1 -35 -40 -35 -39 0 -40 1 -40 34 0 33 -2 35
-37 38 -36 3 -38 5 -41 41 l-3 37 40 0 41 0 0 41 0 40 38 -3 c35 -3 37 -5 40
-40z"/>
</g>
</svg>
